<svg viewBox="0 0 512 512" xmlns="http://www.w3.org/2000/svg"><path d="m406 30h15v-30h-15c-36.800781 0-67.34375 27.695312-73.652344 62.703125-26.53125 6.203125-46.347656 29.875-46.347656 58.296875 0 33.136719 26.863281 60 60 60s60-26.863281 60-60c0-27.21875-18.238281-49.941406-43.082031-57.28125 5.386719-18.820312 22.554687-33.71875 43.082031-33.71875zm0 0"/><path d="m435.09375 129.992188c-4.589844 45.359374-42.542969 81.007812-89.09375 81.007812-49.628906 0-90-40.371094-90-90 0-.636719.175781-1.226562.1875-1.859375l-244.734375 121.859375h497.460937c-10.605468-44.683594-37.378906-83.777344-73.820312-111.007812zm0 0"/><path d="m87.425781 428.617188c3-1.132813 48.496094-46.195313 100.136719-8.671876 4.210938 1.753907 31.703125 31.878907 63.984375 9.125 3-1.140624 49-46.789062 100.765625-9.125 8.03125 4.742188 17.90625 17.3125 38.6875 17.160157v-76.105469h-391v49.117188c7.949219 2.320312 15.371094 5.328124 21.5625 9.828124 3.121094 1.285157 33.398438 32.253907 65.863281 8.671876zm0 0"/><path d="m391 467.011719c-32.472656.164062-48.972656-18.648438-56.339844-22.808594-33.304687-24.21875-60.101562 6.722656-64.832031 8.671875-52.160156 36.941406-96.914063-7.527344-99.917969-8.671875-33.296875-24.230469-60.101562 6.722656-64.832031 8.671875-13.214844 9.59375-29.683594 14.386719-45.136719 14.386719-31.824218 0-48.75-18.917969-56.03125-23.058594-1.148437-.839844-2.632812-1.339844-3.910156-2.042969v69.839844h391zm0 0"/><path d="m0 271v60h421v181h91l-.273438-241zm0 0"/></svg>