<?xml version="1.0" encoding="iso-8859-1"?>
<!-- Generator: Adobe Illustrator 19.0.0, SVG Export Plug-In . SVG Version: 6.00 Build 0)  -->
<svg version="1.1" id="Capa_1" xmlns="http://www.w3.org/2000/svg" xmlns:xlink="http://www.w3.org/1999/xlink" x="0px" y="0px"
	 viewBox="0 0 512 512" style="enable-background:new 0 0 512 512;" xml:space="preserve">
<g>
	<g>
		<polygon points="189.952,352 210.304,512 301.696,512 322.048,352 		"/>
	</g>
</g>
<g>
	<g>
		<path d="M354.304,352l-20.352,160h55.808c15.264,0,28.384-10.752,31.392-25.728L448,352H354.304z"/>
	</g>
</g>
<g>
	<g>
		<path d="M157.696,352H64l26.848,134.272C93.856,501.248,106.976,512,122.24,512h55.808L157.696,352z"/>
	</g>
</g>
<g>
	<g>
		<circle cx="256" cy="48" r="48"/>
	</g>
</g>
<g>
	<g>
		<path d="M448,192c-22.368-53.664-65.664-93.952-117.984-113.856C318.112,107.36,289.504,128,256,128
			c-33.504,0-62.112-20.64-74.016-49.856C129.664,98.048,86.368,138.336,64,192c-35.36,0-64,28.64-64,64s28.64,64,64,64h384
			c35.36,0,64-28.64,64-64S483.36,192,448,192z"/>
	</g>
</g>
<g>
</g>
<g>
</g>
<g>
</g>
<g>
</g>
<g>
</g>
<g>
</g>
<g>
</g>
<g>
</g>
<g>
</g>
<g>
</g>
<g>
</g>
<g>
</g>
<g>
</g>
<g>
</g>
<g>
</g>
</svg>
