<svg width="140" height="138" viewBox="0 0 140 138" fill="none" xmlns="http://www.w3.org/2000/svg">
<path d="M140 94.3316C140 89.0677 136.561 84.622 131.797 82.9474V41.0639L140 37.73L70 10.0454L0 37.73L70 65.4149L123.594 44.3106V82.9474C118.83 84.622 115.391 89.0677 115.391 94.3316C115.391 99.1508 118.278 103.288 122.418 105.243L115.603 125.396L123.382 127.955L127.695 115.198L132.009 127.955L139.788 125.396L132.972 105.243C137.113 103.288 140 99.1511 140 94.3316Z" fill="#304C73"/>
<path d="M70 74.1286L33.0859 59.5179V70.0738C33.0859 81.5987 48.9554 90.2886 70 90.2886C91.0446 90.2886 106.914 81.5987 106.914 70.0738V59.5179L70 74.1286Z" fill="#304C73"/>
</svg>
