<svg width="140" height="140" viewBox="0 0 140 140" fill="none" xmlns="http://www.w3.org/2000/svg">
<path d="M28.9844 140H111.016C117.801 140 123.32 134.48 123.32 127.695V41.0156H94.6094C87.8243 41.0156 82.3047 35.496 82.3047 28.7109V0H28.9844C22.1993 0 16.6797 5.51961 16.6797 12.3047V127.695C16.6797 134.48 22.1993 140 28.9844 140ZM45.3906 57.6953H94.6094C96.8764 57.6953 98.7109 59.5298 98.7109 61.7969C98.7109 64.0639 96.8764 65.8984 94.6094 65.8984H45.3906C43.1236 65.8984 41.2891 64.0639 41.2891 61.7969C41.2891 59.5298 43.1236 57.6953 45.3906 57.6953ZM45.3906 74.1016H94.6094C96.8764 74.1016 98.7109 75.9361 98.7109 78.2031C98.7109 80.4702 96.8764 82.3047 94.6094 82.3047H45.3906C43.1236 82.3047 41.2891 80.4702 41.2891 78.2031C41.2891 75.9361 43.1236 74.1016 45.3906 74.1016ZM45.3906 90.5078H94.6094C96.8764 90.5078 98.7109 92.3423 98.7109 94.6094C98.7109 96.8764 96.8764 98.7109 94.6094 98.7109H45.3906C43.1236 98.7109 41.2891 96.8764 41.2891 94.6094C41.2891 92.3423 43.1236 90.5078 45.3906 90.5078ZM45.3906 106.914H78.2031C80.4702 106.914 82.3047 108.749 82.3047 111.016C82.3047 113.283 80.4702 115.117 78.2031 115.117H45.3906C43.1236 115.117 41.2891 113.283 41.2891 111.016C41.2891 108.749 43.1236 106.914 45.3906 106.914Z" fill="#505269"/>
<path d="M94.6094 32.8126H120.917L90.5078 2.40332V28.711C90.5078 30.974 92.3464 32.8126 94.6094 32.8126Z" fill="#505269"/>
</svg>
