<svg width="140" height="140" viewBox="0 0 140 140" fill="none" xmlns="http://www.w3.org/2000/svg">
<path d="M95.5137 60.97C95.8734 60.4655 96.0134 60.142 96.0689 59.9683C95.772 59.8114 95.3786 59.4927 93.2327 59.4927C92.0137 59.4927 90.4834 59.5458 88.8613 59.7534C90.8286 61.2669 91.3089 62.032 92.5955 62.032C93.1579 62.0345 94.7703 62.0103 95.5137 60.97Z" fill="#505269"/>
<path d="M49.5698 78.7717C49.9295 78.6582 52.0295 77.7 55.9422 70.4779C50.7815 73.3769 48.6816 75.7593 48.5319 77.1014C48.5053 77.3234 48.4402 77.9076 49.5698 78.7717Z" fill="#505269"/>
<path d="M124.31 94.1379V33.74C124.31 31.891 124.088 30.5224 122.983 29.4145L94.8935 1.32759C94.0511 0.485172 92.8828 0 91.688 0H21.6349C18.7721 0 15.6897 2.21103 15.6897 7.06276V94.1379H124.31ZM90.5173 8.18517C90.5173 7.07965 91.8521 6.5269 92.6342 7.30897L117.001 31.6762C117.784 32.4583 117.231 33.7931 116.125 33.7931H90.5173V8.18517ZM44.4911 76.65C44.9304 72.7203 49.7894 68.6072 58.9376 64.4169C62.568 56.461 66.0221 46.6586 68.0811 38.4686C65.6721 33.2259 63.3307 26.4238 65.0373 22.4338C65.6359 21.0362 66.3818 19.9645 67.7745 19.501C68.3249 19.3176 69.7152 19.0859 70.2269 19.0859C71.4435 19.0859 72.5128 20.6524 73.2707 21.6179C73.9828 22.5255 75.5976 24.4493 72.3704 38.0365C75.6242 44.7565 80.2345 51.6021 84.6518 56.2896C87.8163 55.7176 90.539 55.4255 92.7573 55.4255C96.5373 55.4255 98.828 56.3065 99.7621 58.1217C100.535 59.6231 100.218 61.3779 98.8207 63.3355C97.4763 65.2159 95.6225 66.2103 93.4621 66.2103C90.5269 66.2103 87.109 64.3565 83.2976 60.6948C76.4497 62.1262 68.4504 64.68 61.9887 67.5065C59.9707 71.7886 58.0373 75.2379 56.2366 77.7676C53.7673 81.2386 51.6335 82.8534 49.5214 82.8534C48.6814 82.8534 47.8752 82.5807 47.1873 82.0665C44.6697 80.1765 44.3318 78.079 44.4911 76.65Z" fill="#505269"/>
<path d="M51.2256 110.692C50.8829 110.219 50.4049 109.823 49.7894 109.504C49.1739 109.185 48.358 109.026 47.3467 109.026H44.3777V118.662H48.008C48.4908 118.662 48.9687 118.58 49.4442 118.413C49.9173 118.249 50.3518 117.979 50.7477 117.605C51.1435 117.231 51.4622 116.709 51.7035 116.038C51.9449 115.367 52.0656 114.537 52.0656 113.547C52.0656 113.151 52.0101 112.693 51.9015 112.179C51.7904 111.662 51.566 111.167 51.2256 110.692Z" fill="#505269"/>
<path d="M70.8278 43.8683C69.0995 49.84 66.8233 56.2873 64.3733 62.1262C69.4181 60.1686 74.9023 58.4597 80.0533 57.2504C76.7947 53.4655 73.5385 48.7393 70.8278 43.8683Z" fill="#505269"/>
<path d="M15.6897 98.9655V135.172C15.6897 137.608 18.6345 140 21.6349 140H118.365C121.366 140 124.31 137.608 124.31 135.172V98.9655H15.6897ZM55.2663 116.898C54.8487 117.899 54.2645 118.742 53.5163 119.422C52.768 120.103 51.8652 120.632 50.8104 121.006C49.7556 121.38 48.5873 121.566 47.3128 121.566H44.3752V130.345H40.4142V106.023H47.4094C48.4425 106.023 49.4659 106.188 50.4773 106.518C51.4887 106.849 52.3963 107.344 53.2 108.003C54.0038 108.662 54.6531 109.461 55.148 110.395C55.6428 111.329 55.8914 112.379 55.8914 113.547C55.8938 114.781 55.6838 115.896 55.2663 116.898ZM79.5394 122.64C79.1097 124.059 78.5666 125.247 77.9052 126.205C77.2438 127.163 76.5028 127.917 75.6773 128.467C74.8518 129.017 74.0552 129.428 73.2852 129.705C72.5152 129.98 71.8104 130.157 71.1732 130.234C70.5359 130.306 70.0628 130.345 69.7538 130.345H60.5476V106.023H67.8735C69.9204 106.023 71.7187 106.349 73.2683 106.996C74.818 107.643 76.1069 108.51 77.1304 109.586C78.1538 110.663 78.9166 111.891 79.4235 113.265C79.928 114.638 80.1814 116.053 80.1814 117.506C80.1838 119.509 79.969 121.221 79.5394 122.64ZM101.138 109.026H89.95V116.683H100.115V119.389H89.95V130.345H85.9238V106.023H101.138V109.026Z" fill="#505269"/>
<path d="M74.2605 111.715C73.5678 110.911 72.6264 110.262 71.4388 109.767C70.2512 109.272 68.7112 109.024 66.8188 109.024H64.5088V127.439H68.436C71.1202 127.439 73.056 126.582 74.2436 124.866C75.4312 123.149 76.025 120.663 76.025 117.407C76.025 116.396 75.9043 115.394 75.6629 114.404C75.4191 113.414 74.9533 112.519 74.2605 111.715Z" fill="#505269"/>
<path d="M69.3629 23.4428C69.1263 23.5224 66.1525 27.6838 69.5946 31.2055C71.8853 26.1003 69.4667 23.409 69.3629 23.4428Z" fill="#505269"/>
</svg>
