<svg width="140" height="140" viewBox="0 0 140 140" fill="none" xmlns="http://www.w3.org/2000/svg">
<path d="M82.8871 36.2277C82.8871 28.3637 76.4914 21.9652 68.6273 21.9652H60.9219V4.10156C60.9219 1.8375 59.0844 0 56.8203 0H25.7934C23.5293 0 21.875 2.11094 21.875 4.375V39.5391H82.8871V36.2277ZM52.7188 21.9652H30.1684V8.20312H52.7188V21.9652Z" fill="#FF7B54"/>
<path d="M0 125.74C0 133.312 5.93633 139.527 13.3984 139.973V47.7422H0V125.74Z" fill="#FF7B54"/>
<path d="M0 36.2277V39.539H13.3984V21.9926C5.93633 22.4383 0 28.6535 0 36.2277Z" fill="#FF7B54"/>
<path d="M128.22 74.684H115.836V71.1457C115.836 63.3866 109.521 57.1129 101.804 57.1129H82.8871V47.7422H21.875V140H35.0082C32.6266 136.5 31.3359 132.393 31.3359 128.22V86.4664C31.3359 75.4469 40.302 66.4809 51.3215 66.4809H64.5012C63.5223 69.2464 63.7027 71.1446 63.7027 74.684H51.3215C44.8246 74.684 39.5391 79.9695 39.5391 86.4664V128.22C39.5391 134.714 44.8246 140 51.3215 140H128.22C134.714 140 140 134.714 140 128.22V86.4664C140 79.9695 134.714 74.684 128.22 74.684ZM70.0793 99.7719C63.0574 104.454 62.8575 104.855 61.2172 104.855C57.1867 104.855 55.5581 99.5903 58.9395 97.341L65.5293 92.9469C67.4133 91.6891 69.959 92.2004 71.2168 94.0844C72.4719 95.9683 71.9633 98.5168 70.0793 99.7719V99.7719ZM71.9059 71.1457C71.9059 67.9126 74.5344 65.316 77.7355 65.316H101.804C105.001 65.316 107.633 67.9096 107.633 71.1457V74.684H71.9059V71.1457ZM80.984 120.23C77.5113 120.23 74.684 117.406 74.684 113.933C74.684 110.461 77.5113 107.633 80.984 107.633C84.4566 107.633 87.2813 110.461 87.2813 113.933C87.2813 117.406 84.4566 120.23 80.984 120.23V120.23ZM100.754 104.855C97.2809 104.855 94.4535 102.028 94.4535 98.5551C94.4535 95.0824 97.2809 92.2578 100.754 92.2578C104.226 92.2578 107.051 95.0824 107.051 98.5551C107.051 102.028 104.226 104.855 100.754 104.855ZM116.129 122.426H109.539C107.275 122.426 105.438 120.591 105.438 118.325C105.438 116.061 107.275 114.223 109.539 114.223H116.129C118.393 114.223 120.23 116.061 120.23 118.325C120.23 120.591 118.393 122.426 116.129 122.426Z" fill="#FF7B54"/>
</svg>
